<?xml version="1.0" encoding="UTF-8" standalone="no"?>
<!-- Created with Inkscape (http://www.inkscape.org/) -->

<svg
   xmlns:dc="http://purl.org/dc/elements/1.1/"
   xmlns:cc="http://creativecommons.org/ns#"
   xmlns:rdf="http://www.w3.org/1999/02/22-rdf-syntax-ns#"
   xmlns:svg="http://www.w3.org/2000/svg"
   xmlns="http://www.w3.org/2000/svg"
   xmlns:xlink="http://www.w3.org/1999/xlink"
   xmlns:sodipodi="http://sodipodi.sourceforge.net/DTD/sodipodi-0.dtd"
   xmlns:inkscape="http://www.inkscape.org/namespaces/inkscape"
   height="260"
   id="svg2"
   inkscape:version="0.47 r22583"
   sodipodi:docname="Ampelmann Stop.svg"
   sodipodi:version="0.32"
   width="260"
   version="1.1">
  <metadata
     id="metadata3">
    <rdf:RDF>
      <cc:Work
         rdf:about="">
        <dc:title></dc:title>
        <dc:description>Ampelmaennchen are the little men on traffic signals.  These two are in the East German style (inspired by a wikipedia article).</dc:description>
        <dc:subject>
          <rdf:Bag>
            <rdf:li>roadtravel</rdf:li>
            <rdf:li>traffic signal man stop go sign pedestrian</rdf:li>
            <rdf:li>transport</rdf:li>
            <rdf:li>stop</rdf:li>
            <rdf:li>roadsign</rdf:li>
            <rdf:li>go</rdf:li>
            <rdf:li>pedestrian</rdf:li>
            <rdf:li>city</rdf:li>
            <rdf:li>europe</rdf:li>
          </rdf:Bag>
        </dc:subject>
        <dc:publisher>
          <cc:Agent
             rdf:about="http://www.openclipart.org/">
            <dc:title>Open Clip Art Library</dc:title>
          </cc:Agent>
        </dc:publisher>
        <dc:creator>
          <cc:Agent>
            <dc:title>Matthew Gates</dc:title>
          </cc:Agent>
        </dc:creator>
        <dc:rights>
          <cc:Agent>
            <dc:title>Publc Domain</dc:title>
          </cc:Agent>
        </dc:rights>
        <dc:date>2005-07-28</dc:date>
        <dc:format>image/svg+xml</dc:format>
        <dc:type
           rdf:resource="http://purl.org/dc/dcmitype/StillImage" />
        <cc:license
           rdf:resource="http://web.resource.org/cc/PublicDomain" />
        <dc:language>en</dc:language>
      </cc:Work>
      <cc:License
         rdf:about="http://web.resource.org/cc/PublicDomain">
        <cc:permits
           rdf:resource="http://web.resource.org/cc/Reproduction" />
        <cc:permits
           rdf:resource="http://web.resource.org/cc/Distribution" />
        <cc:permits
           rdf:resource="http://web.resource.org/cc/DerivativeWorks" />
      </cc:License>
    </rdf:RDF>
  </metadata>
  <defs
     id="defs4">
    <inkscape:perspective
       sodipodi:type="inkscape:persp3d"
       inkscape:vp_x="0 : 186.02362 : 1"
       inkscape:vp_y="0 : 1000 : 0"
       inkscape:vp_z="524.40942 : 186.02362 : 1"
       inkscape:persp3d-origin="262.20471 : 124.01575 : 1"
       id="perspective36" />
    <radialGradient
       cx="298.12531"
       cy="350.82419"
       fx="298.12531"
       fy="350.82419"
       gradientTransform="matrix(1,0,0,1.112913,0,-39.61257)"
       gradientUnits="userSpaceOnUse"
       id="radialGradient3548"
       inkscape:collect="always"
       r="340.96289"
       xlink:href="#linearGradient3528" />
    <radialGradient
       cx="298.12531"
       cy="350.82419"
       fx="298.12531"
       fy="350.82419"
       gradientTransform="matrix(1,0,0,1.112913,0,-39.61257)"
       gradientUnits="userSpaceOnUse"
       id="radialGradient3546"
       inkscape:collect="always"
       r="340.96289"
       xlink:href="#linearGradient3528" />
    <radialGradient
       cx="298.12531"
       cy="350.82419"
       fx="298.12531"
       fy="350.82419"
       gradientTransform="matrix(1,0,0,1.112913,0,-39.61257)"
       gradientUnits="userSpaceOnUse"
       id="radialGradient3544"
       inkscape:collect="always"
       r="340.96289"
       xlink:href="#linearGradient3528" />
    <radialGradient
       cx="298.12531"
       cy="350.82419"
       fx="298.12531"
       fy="350.82419"
       gradientTransform="matrix(1,0,0,1.112913,0,-39.61257)"
       gradientUnits="userSpaceOnUse"
       id="radialGradient3542"
       inkscape:collect="always"
       r="340.96289"
       xlink:href="#linearGradient3528" />
    <radialGradient
       cx="298.12531"
       cy="350.82419"
       fx="298.12531"
       fy="350.82419"
       gradientTransform="matrix(1,0,0,1.112913,0,-39.61257)"
       gradientUnits="userSpaceOnUse"
       id="radialGradient3540"
       inkscape:collect="always"
       r="340.96289"
       xlink:href="#linearGradient3528" />
    <radialGradient
       cx="298.12531"
       cy="350.82419"
       fx="298.12531"
       fy="350.82419"
       gradientTransform="matrix(1,0,0,1.112913,0,-39.61257)"
       gradientUnits="userSpaceOnUse"
       id="radialGradient3538"
       inkscape:collect="always"
       r="340.96289"
       xlink:href="#linearGradient3528" />
    <radialGradient
       cx="298.12531"
       cy="350.82419"
       fx="298.12531"
       fy="350.82419"
       gradientTransform="matrix(1,0,0,1.112913,0,-39.61257)"
       gradientUnits="userSpaceOnUse"
       id="radialGradient3536"
       inkscape:collect="always"
       r="340.96289"
       xlink:href="#linearGradient3528" />
    <radialGradient
       cx="298.12531"
       cy="350.82419"
       fx="298.12531"
       fy="350.82419"
       gradientTransform="matrix(1,0,0,1.112913,0,-39.61257)"
       gradientUnits="userSpaceOnUse"
       id="radialGradient3534"
       inkscape:collect="always"
       r="340.96289"
       xlink:href="#linearGradient3528" />
    <radialGradient
       cx="298.12531"
       cy="350.82419"
       fx="298.12531"
       fy="350.82419"
       gradientTransform="matrix(1,0,0,1.112913,0,-39.61257)"
       gradientUnits="userSpaceOnUse"
       id="radialGradient3526"
       inkscape:collect="always"
       r="340.96289"
       xlink:href="#linearGradient3528" />
    <linearGradient
       id="linearGradient3528">
      <stop
         id="stop3530"
         offset="0.0000000"
         style="stop-color:#05ff00;stop-opacity:1.0000000;" />
      <stop
         id="stop3532"
         offset="1.0000000"
         style="stop-color:#0d8d0b;stop-opacity:0.79274613;" />
    </linearGradient>
    <radialGradient
       cx="356.63849"
       cy="420.37048"
       fx="356.63849"
       fy="420.37048"
       gradientTransform="matrix(0.420135,0,0,0.457467,94.65933,78.20887)"
       gradientUnits="userSpaceOnUse"
       id="radialGradient2076"
       inkscape:collect="always"
       r="312.88068"
       xlink:href="#linearGradient2070" />
    <linearGradient
       id="linearGradient2070">
      <stop
         id="stop2072"
         offset="0.0000000"
         style="stop-color:#ff0000;stop-opacity:1.0000000;" />
      <stop
         id="stop2074"
         offset="1.0000000"
         style="stop-color:#9a1a00;stop-opacity:1.0000000;" />
    </linearGradient>
    <inkscape:perspective
       id="perspective2852"
       inkscape:persp3d-origin="0.5 : 0.33333333 : 1"
       inkscape:vp_z="1 : 0.5 : 1"
       inkscape:vp_y="0 : 1000 : 0"
       inkscape:vp_x="0 : 0.5 : 1"
       sodipodi:type="inkscape:persp3d" />
    <radialGradient
       inkscape:collect="always"
       xlink:href="#linearGradient3528"
       id="radialGradient3646"
       cx="337.89963"
       cy="132.50696"
       fx="337.89963"
       fy="132.50696"
       r="61.977695"
       gradientTransform="matrix(1,0,0,1.0850228,158.42428,-136.43917)"
       gradientUnits="userSpaceOnUse" />
  </defs>
  <sodipodi:namedview
     bordercolor="#666666"
     borderopacity="1.0"
     id="base"
     inkscape:current-layer="layer1"
     inkscape:cx="411.99214"
     inkscape:cy="206.2124"
     inkscape:document-units="px"
     inkscape:pageopacity="0.0"
     inkscape:pageshadow="2"
     inkscape:window-height="742"
     inkscape:window-width="1362"
     inkscape:window-x="0"
     inkscape:window-y="0"
     inkscape:zoom="0.9962963"
     pagecolor="#ffffff"
     showguides="true"
     showgrid="true"
     inkscape:window-maximized="0">
    <inkscape:grid
       type="xygrid"
       id="grid3648"
       empspacing="5"
       visible="true"
       enabled="true"
       snapvisiblegridlinesonly="true"
       spacingx="20px"
       spacingy="20px" />
  </sodipodi:namedview>
  <g
     id="layer1"
     inkscape:groupmode="layer"
     inkscape:label="Layer 1"
     transform="translate(-16.323915,-55.333908)">
    <g
       id="g1344"
       inkscape:label="Layer 1"
       transform="matrix(-1.180066,0,0,1.180066,298.12904,22.11447)">
      <g
         id="g1316"
         style="fill:url(#radialGradient3526);fill-opacity:1"
         transform="matrix(0.267932,0,0,0.267932,54.52761,45.26935)">
        <path
           d="m 498.91743,728.9939 c -2.63277,-2.63278 -3.00642,-7.04589 -1.34073,-15.83518 2.1493,-11.34114 7.07979,-27.03235 14.92677,-47.50427 3.62769,-9.46426 7.35715,-20.23864 8.28767,-23.94307 l 1.69186,-6.73534 -7.78565,-7.34456 c -9.0424,-8.5301 -27.10771,-23.08839 -58.05449,-46.78435 -39.09778,-29.93718 -74.72981,-58.91649 -98.27353,-79.92525 -12.61939,-11.26065 -16.67723,-13.92401 -19.17648,-12.58646 -3.61341,1.93385 -30.45519,29.76909 -70.42036,73.02676 -77.10409,83.45625 -123.99312,132.98645 -129.82881,137.14183 l -2.89514,2.06152 -3.75451,-2.48461 C 112.58285,685.03668 34.60392,614.50093 14.509629,591.53919 7.079171,583.0484 1.14286,572.90639 1.14286,568.70246 c 0,-1.28716 0.956368,-3.29665 2.125261,-4.46554 1.871767,-1.87177 2.855803,-2.05017 8.25,-1.49566 7.062259,0.72598 25.763749,5.53512 46.624739,11.98968 22.45406,6.94747 24.98828,7.06137 33.3838,1.50041 5.71395,-3.78476 13.96564,-13.26579 51.23608,-58.86917 65.52095,-80.17018 69.38012,-85.52626 69.38012,-96.2917 0,-7.47779 -1.88028,-10.98784 -7.28845,-13.60589 -5.68124,-2.75024 -9.1799,-2.65191 -17.41606,0.4895 -21.04592,8.02726 -25.86964,9.48966 -29.96504,9.08445 -6.04276,-0.59789 -14.29103,-4.77009 -39.45813,-19.95899 C 105.71041,389.65334 83.94286,376.93757 69.64286,368.82226 33.03395,348.04658 29.0546,345.16211 27.62078,338.36218 c -1.40567,-6.66641 -7.34869,-13.34854 -28.47792,-32.01956 -23.363524,-20.64539 -36.157202,-34.03259 -39.6414,-41.48044 -4.352009,-9.30289 -2.656906,-16.11114 7.307529,-29.35009 11.311074,-15.02812 18.350063,-20.14991 27.692487,-20.14991 9.441561,0 18.16508,5.72797 38.141384,25.04408 22.1394,21.40772 30.31621,27.3471 46,33.41294 5.5,2.12717 20.8,8.46657 34,14.08755 24.99802,10.64496 43.63989,17.21092 51.51157,18.14321 8.38908,0.99356 17.27832,-5.86394 29.68628,-22.90112 14.64543,-20.10943 19.75745,-26.66735 29.91625,-38.37786 13.11475,-15.11799 22.3859,-27.92883 22.3859,-30.93278 0,-6.02033 -11.59509,-15.04822 -24.8879,-19.37762 -15.16138,-4.93798 -29.66789,-16.38808 -35.3274,-27.88416 -3.08318,-6.26283 -3.28447,-7.31767 -3.281,-17.19321 0.003,-7.47771 0.85176,-14.94579 2.93549,-25.81783 l 2.93179,-15.29681 -10.40158,-10.4371 c -6.25749,-6.27885 -10.01669,-10.77387 -9.43549,-11.28237 7.58371,-6.63523 13.72478,-9.93466 21.60847,-11.60961 4.27333,-0.9079 11.80956,-10.27743 20.10762,-24.99909 4.2625,-7.56213 7.75,-14.12016 7.75,-14.57339 0,-0.45323 -3.2625,-2.62452 -7.25,-4.82509 -12.92147,-7.13091 -33.64583,-21.73382 -43.47911,-30.63646 -4.38518,-3.97016 -4.63398,-4.45097 -3.54267,-6.84612 3.70736,-8.13678 28.93444,-5.83294 69.40166,6.33805 l 7.62988,2.29478 6.32322,-6.915 c 16.4109,-17.94675 23.33018,-23.41499 29.62834,-23.41499 1.53505,0 15.61548,5.99231 31.28984,13.31626 15.67436,7.32394 49.42384,22.9267 74.99884,34.67281 25.575,11.7461 46.67575,21.49204 46.89055,21.65763 0.21481,0.16559 -0.40068,9.20903 -1.36774,20.09653 -0.96707,10.8875 -1.59281,20.53728 -1.39055,21.44395 0.22789,1.02156 11.77682,7.35792 30.36774,16.66136 16.5,8.25708 33.1397,17.18156 36.97712,19.83217 7.66369,5.29353 10.08704,9.1837 7.39678,11.87396 -4.11945,4.11945 -33.11982,4.351 -58.71395,0.4688 -15.73855,-2.38728 -24.21398,-2.56401 -28.0415,-0.58472 -7.93567,4.10369 -49.11845,65.13478 -49.11845,72.7914 0,3.16172 4.58231,13.79999 17.77649,41.26985 23.50282,48.9321 31.34702,67.17538 41.06285,95.5 11.4519,33.38578 12.49639,35.59002 24.52031,51.74631 17.68694,23.76558 38.60693,46.74825 112.64689,123.75369 62.04444,64.52948 71.13829,74.5206 74.63582,82 2.50664,5.36041 3.01117,11.65088 1.29625,16.16147 -1.95386,5.13903 -16.26766,21.6254 -35.43861,40.81754 -34.36331,34.40128 -70.38176,64.97205 -85.47059,72.54343 -5.89834,2.95971 -16.01275,3.85136 -18.25484,1.60928 z"
           id="path1332"
           style="fill:url(#radialGradient3534);fill-opacity:1" />
        <path
           d="m 498.91743,728.9939 c -2.63277,-2.63278 -3.00642,-7.04589 -1.34073,-15.83518 2.1493,-11.34114 7.07979,-27.03235 14.92677,-47.50427 3.62769,-9.46426 7.35715,-20.23864 8.28767,-23.94307 l 1.69186,-6.73534 -7.78565,-7.34456 c -9.0424,-8.5301 -27.10771,-23.08839 -58.05449,-46.78435 -39.09778,-29.93718 -74.72981,-58.91649 -98.27353,-79.92525 -12.78502,-11.40845 -16.66347,-13.93138 -19.27109,-12.53582 -3.64311,1.94974 -30.75182,30.07866 -70.81119,73.47612 C 193.2304,643.1732 144.8071,694.32888 138.94368,698.50401 l -2.89514,2.06152 -3.75451,-2.48461 C 112.58285,685.03668 34.60392,614.50093 14.509629,591.53919 7.079171,583.0484 1.14286,572.90639 1.14286,568.70246 c 0,-1.28716 0.956368,-3.29665 2.125261,-4.46554 1.871767,-1.87177 2.855803,-2.05017 8.25,-1.49566 7.062259,0.72598 25.763749,5.53512 46.624739,11.98968 22.45406,6.94747 24.98828,7.06137 33.3838,1.50041 5.71395,-3.78476 13.96564,-13.26579 51.23608,-58.86917 65.52095,-80.17018 69.38012,-85.52626 69.38012,-96.2917 0,-7.47779 -1.88028,-10.98784 -7.28845,-13.60589 -5.68124,-2.75024 -9.1799,-2.65191 -17.41606,0.4895 -21.04592,8.02726 -25.86964,9.48966 -29.96504,9.08445 -5.99251,-0.59292 -14.05198,-4.65449 -38.34906,-19.32603 -11.81477,-7.13423 -33.63139,-19.87658 -48.48139,-28.31636 -38.13752,-21.67488 -41.87355,-24.36654 -42.9896,-30.97241 -0.88218,-5.22159 -6.30358,-11.8564 -19.5104,-23.87718 -37.967843,-34.55815 -44.857188,-41.59521 -48.6414,-49.68438 -4.491358,-9.60077 -2.436474,-16.96498 8.650127,-31 11.334454,-14.34879 17.247106,-18.5 26.349889,-18.5 9.441561,0 18.16508,5.72797 38.141384,25.04408 22.1394,21.40772 30.31621,27.3471 46,33.41294 5.5,2.12717 20.8,8.46657 34,14.08755 24.99802,10.64496 43.63989,17.21092 51.51157,18.14321 8.38908,0.99356 17.27832,-5.86394 29.68628,-22.90112 14.59376,-20.03847 19.75267,-26.66514 29.91625,-38.42768 18.67584,-21.61398 23.14475,-28.19933 22.06255,-32.51118 -1.44315,-5.74998 -12.70362,-13.88635 -24.56455,-17.7494 -15.16138,-4.93798 -29.66789,-16.38808 -35.3274,-27.88416 -3.08318,-6.26283 -3.28447,-7.31767 -3.281,-17.19321 0.003,-7.47771 0.85176,-14.94579 2.93549,-25.81783 l 2.93179,-15.29681 -10.40158,-10.4371 c -6.25749,-6.27885 -10.01669,-10.77387 -9.43549,-11.28237 7.58371,-6.63523 13.72478,-9.93466 21.60847,-11.60961 4.27333,-0.9079 11.80956,-10.27743 20.10762,-24.99909 4.2625,-7.56213 7.75,-14.12016 7.75,-14.57339 0,-0.45323 -3.2625,-2.62452 -7.25,-4.82509 -12.92147,-7.13091 -33.64583,-21.73382 -43.47911,-30.63646 -4.39156,-3.97594 -4.63526,-4.44817 -3.53811,-6.85615 1.67711,-3.68085 7.56995,-5.031 19.26722,-4.41446 11.63037,0.61302 20.69935,2.44729 41.64339,8.42268 l 16.14339,4.60575 6.30971,-6.90055 c 16.39464,-17.92983 23.31817,-23.40055 29.61483,-23.40055 1.53505,0 15.61548,5.99397 31.28984,13.31994 15.67436,7.32596 49.42384,22.9297 74.99884,34.67497 25.575,11.74528 46.67575,21.48955 46.89055,21.65395 0.21481,0.1644 -0.40068,9.20687 -1.36774,20.09437 -0.96707,10.8875 -1.59281,20.53728 -1.39055,21.44395 0.22789,1.02156 11.77682,7.35792 30.36774,16.66136 16.5,8.25708 33.1397,17.18156 36.97712,19.83217 7.66369,5.29353 10.08704,9.1837 7.39678,11.87396 -4.11945,4.11945 -33.11982,4.351 -58.71395,0.4688 -15.73855,-2.38728 -24.21398,-2.56401 -28.0415,-0.58472 -7.93567,4.10369 -49.11845,65.13478 -49.11845,72.7914 0,3.15454 4.57059,13.77135 17.76687,41.26985 23.73949,49.46848 31.36374,67.19609 41.07247,95.5 7.82747,22.81947 11.43692,32.08931 14.58922,37.46831 3.94216,6.72678 16.24966,22.94789 26.62942,35.0972 20.97627,24.55232 34.36326,38.91475 95.47753,102.43449 60.78037,63.17269 71.65451,75.11723 75.10685,82.5 2.50664,5.36041 3.01117,11.65088 1.29625,16.16147 -1.95386,5.13903 -16.26766,21.6254 -35.43861,40.81754 -34.36331,34.40128 -70.38176,64.97205 -85.47059,72.54343 -5.89834,2.95971 -16.01275,3.85136 -18.25484,1.60928 z"
           id="path1330"
           style="fill:url(#radialGradient3536);fill-opacity:1" />
        <path
           d="m 498.91743,728.9939 c -2.63277,-2.63278 -3.00642,-7.04589 -1.34073,-15.83518 2.1493,-11.34114 7.07979,-27.03235 14.92677,-47.50427 3.62769,-9.46426 7.35462,-20.22858 8.28206,-23.92073 l 1.68625,-6.71299 -7.41446,-7.09032 c -8.50014,-8.12854 -26.88065,-22.94119 -58.41446,-47.07553 -38.07544,-29.14098 -74.84049,-59.04766 -98.27353,-79.941 -12.78931,-11.40321 -16.66486,-13.92263 -19.27109,-12.52782 -3.64311,1.94974 -30.75182,30.07866 -70.81119,73.47612 -74.5687,80.78242 -123.53146,132.50339 -129.37876,136.66703 l -2.85975,2.03632 -3.75451,-2.48461 C 112.58285,685.03668 34.60392,614.50093 14.509629,591.53919 7.079171,583.0484 1.14286,572.90639 1.14286,568.70246 c 0,-1.28716 0.956368,-3.29665 2.125261,-4.46554 1.871767,-1.87177 2.855803,-2.05017 8.25,-1.49566 7.152309,0.73523 25.974509,5.59148 46.983709,12.12211 19.00159,5.90657 22.85303,6.38332 29.1315,3.60605 6.96892,-3.08268 13.78985,-10.58804 51.05577,-56.1788 71.32287,-87.2557 73.45376,-90.19209 73.45376,-101.22014 0,-7.47779 -1.88028,-10.98784 -7.28845,-13.60589 -5.68124,-2.75024 -9.1799,-2.65191 -17.41606,0.4895 -21.04592,8.02726 -25.86964,9.48966 -29.96504,9.08445 -5.99251,-0.59292 -14.05198,-4.65449 -38.34906,-19.32603 -11.81477,-7.13423 -33.63139,-19.87658 -48.48139,-28.31636 -38.13752,-21.67488 -41.87355,-24.36654 -42.9896,-30.97241 -0.90339,-5.34711 -6.39748,-11.98616 -20.5104,-24.78471 -35.507999,-32.20107 -44.037638,-40.945 -47.732787,-48.93196 -4.373124,-9.45238 -2.257242,-16.96468 8.632449,-30.64895 11.701964,-14.70499 17.350049,-18.69594 26.458954,-18.69594 9.441561,0 18.16508,5.72797 38.141384,25.04408 22.20399,21.47018 30.54487,27.53401 46,33.44206 5.5,2.10249 20.8,8.42524 34,14.05055 24.98441,10.64736 43.63059,17.2177 51.51157,18.15109 5.92531,0.70176 11.02143,-1.80201 17.90861,-8.79868 4.95011,-5.02881 6.74737,-7.31737 24.25794,-30.8891 4.6986,-6.325 12.99319,-16.61349 18.4324,-22.8633 17.42062,-20.01682 22.13705,-27.02199 21.06613,-31.2889 -1.44315,-5.74998 -12.70362,-13.88635 -24.56455,-17.7494 -15.16138,-4.93798 -29.66789,-16.38808 -35.3274,-27.88416 -3.08318,-6.26283 -3.28447,-7.31767 -3.281,-17.19321 0.003,-7.47771 0.85176,-14.94579 2.93549,-25.81783 l 2.93179,-15.29681 -10.40158,-10.4371 c -6.25749,-6.27885 -10.01669,-10.77387 -9.43549,-11.28237 7.58371,-6.63523 13.72478,-9.93466 21.60847,-11.60961 4.27333,-0.9079 11.80956,-10.27743 20.10762,-24.99909 4.2625,-7.56213 7.75,-14.12016 7.75,-14.57339 0,-0.45323 -3.2625,-2.62452 -7.25,-4.82509 -12.92147,-7.13091 -33.64583,-21.73382 -43.47911,-30.63646 -4.39156,-3.97594 -4.63526,-4.44817 -3.53811,-6.85615 1.67711,-3.68085 7.56995,-5.031 19.26722,-4.41446 11.63037,0.61302 20.69935,2.44729 41.64339,8.42268 l 16.14339,4.60575 6.30971,-6.90055 c 16.39464,-17.92983 23.31817,-23.40055 29.61483,-23.40055 1.53505,0 15.61548,5.99397 31.28984,13.31994 15.67436,7.32596 49.42384,22.9297 74.99884,34.67497 25.575,11.74528 46.67575,21.48955 46.89055,21.65395 0.21481,0.1644 -0.40068,9.20687 -1.36774,20.09437 -0.96707,10.8875 -1.59281,20.53728 -1.39055,21.44395 0.22789,1.02156 11.77682,7.35792 30.36774,16.66136 16.5,8.25708 33.1397,17.18156 36.97712,19.83217 7.66369,5.29353 10.08704,9.1837 7.39678,11.87396 -4.11945,4.11945 -33.11982,4.351 -58.71395,0.4688 -15.73855,-2.38728 -24.21398,-2.56401 -28.0415,-0.58472 -7.97392,4.12347 -49.11845,65.09787 -49.11845,72.7914 0,3.15454 4.57059,13.77135 17.76687,41.26985 23.8176,49.63125 31.67187,67.90513 41.14372,95.72565 7.47463,21.95433 11.28152,31.72008 14.51797,37.24266 3.94216,6.72678 16.24966,22.94789 26.62942,35.0972 20.97627,24.55232 34.36326,38.91475 95.47753,102.43449 60.78037,63.17269 71.65451,75.11723 75.10685,82.5 2.50664,5.36041 3.01117,11.65088 1.29625,16.16147 -1.95386,5.13903 -16.26766,21.6254 -35.43861,40.81754 -34.36331,34.40128 -70.38176,64.97205 -85.47059,72.54343 -5.89834,2.95971 -16.01275,3.85136 -18.25484,1.60928 z"
           id="path1328"
           style="fill:url(#radialGradient3538);fill-opacity:1" />
        <path
           d="m 499.45542,729.64406 c -6.11787,-4.2381 -2.27389,-23.1668 12.95263,-63.78188 4.12388,-11 8.06657,-22.44766 8.76153,-25.43925 l 1.26356,-5.43924 -7.39514,-7.07839 c -7.54951,-7.22614 -31.09055,-26.27832 -54.39514,-44.02294 -34.87064,-26.55126 -63.48034,-49.57292 -88.82764,-71.47786 -24.76125,-21.39849 -27.73333,-23.825 -29.8642,-24.38224 -3.72826,-0.97496 -18.63612,14.03611 -79.29097,79.83992 -74.38993,80.70485 -123.74684,132.518 -126.22437,132.5059 C 129.99952,700.33664 37.35219,617.64138 14.509629,591.53919 7.079171,583.0484 1.14286,572.90639 1.14286,568.70246 c 0,-1.28716 0.956368,-3.29665 2.125261,-4.46554 1.871767,-1.87177 2.855803,-2.05017 8.25,-1.49566 7.152309,0.73523 25.974509,5.59148 46.983709,12.12211 19.00159,5.90657 22.85303,6.38332 29.1315,3.60605 6.99761,-3.09537 14.11874,-10.92963 51.19457,-56.32127 71.81233,-87.91926 73.31496,-89.989 73.31496,-100.98457 0,-7.57004 -1.86367,-11.0729 -7.28845,-13.69899 -5.68124,-2.75024 -9.1799,-2.65191 -17.41606,0.4895 -16.49184,6.29026 -26.0097,9.38915 -28.79549,9.37541 -5.14566,-0.0254 -13.60891,-4.22558 -38.71456,-19.21357 C 106.57131,390.14184 84.39286,377.20766 70.64286,369.37329 32.75861,347.7879 29.04363,345.11007 27.62078,338.36218 26.20886,331.6661 19.12784,323.74051 -1.85714,305.36837 c -30.263848,-26.4957 -40.980462,-39.44184 -40.980462,-49.50619 0,-7.29756 6.862079,-18.48936 19.199894,-31.31434 6.589844,-6.85004 11.202052,-9.18566 18.139184,-9.18566 9.616958,0 17.593062,5.32992 39.641384,26.48979 21.64681,20.77454 29.0283,26.08197 44.5,31.99635 5.5,2.10249 20.8,8.431 34,14.06336 33.04569,14.10039 49.66626,19.40457 56.63371,18.07372 6.73407,-1.28628 16.984,-11.72153 31.07709,-31.63899 8.13329,-11.49459 16.55501,-22.02946 28.76631,-35.98423 10.26115,-11.7262 17.02624,-21.46322 17.0163,-24.49166 -0.0205,-6.24974 -10.40641,-14.3443 -24.92426,-19.42544 -15.96295,-5.58692 -29.62895,-16.38072 -35.28445,-27.86866 -3.08318,-6.26283 -3.28447,-7.31767 -3.281,-17.19321 0.003,-7.47771 0.85176,-14.94579 2.93549,-25.81783 l 2.93179,-15.29681 -10.40158,-10.4371 c -6.25749,-6.27885 -10.01669,-10.77387 -9.43549,-11.28237 7.58371,-6.63523 13.72478,-9.93466 21.60847,-11.60961 4.27333,-0.9079 11.80956,-10.27743 20.10762,-24.99909 4.2625,-7.56213 7.75,-14.14927 7.75,-14.6381 0,-0.48882 -1.4625,-1.62998 -3.25,-2.53591 -10.20877,-5.17396 -29.69007,-18.29952 -42.28519,-28.48974 -9.45084,-7.6463 -10.02146,-8.39735 -8.65629,-11.39357 1.5948,-3.50021 7.70828,-4.85349 19.19148,-4.24823 11.63037,0.61302 20.69935,2.44729 41.64339,8.42268 l 16.14339,4.60575 6.30971,-6.90055 c 16.39464,-17.92983 23.31817,-23.40055 29.61483,-23.40055 1.53505,0 15.84048,6.10292 31.78984,13.56206 15.94936,7.45913 49.69884,23.06018 74.99884,34.66901 25.3,11.60883 46.17852,21.24693 46.39672,21.418 0.30786,0.24136 -2.37362,34.59416 -3.21945,41.24482 -0.11351,0.89257 10.99641,7.00668 30.89064,17 40.21145,20.19912 49.27016,26.69661 44.23707,31.7297 -4.05183,4.05183 -33.25606,4.25096 -58.64503,0.39988 -15.89015,-2.41028 -24.20983,-2.56616 -28.1522,-0.52748 -7.91639,4.09373 -49.00775,65.07889 -49.00775,72.73416 0,3.15454 4.57059,13.77135 17.76687,41.26985 23.67349,49.33095 31.70219,67.98163 40.74647,94.65402 12.00366,35.39988 16.02923,42.86873 36.02873,66.84598 21.4955,25.77078 37.27147,42.80078 100.97361,109 60.97161,63.36165 71.67201,75.11224 75.12668,82.5 2.72761,5.83297 3.02433,12.29279 0.78172,17.01875 -9.13031,19.2407 -95.64416,100.08421 -120.39467,112.50369 -4.6543,2.33546 -15.59329,3.73053 -17.71685,2.25944 z"
           id="path1326"
           style="fill:url(#radialGradient3540);fill-opacity:1" />
        <path
           d="m 499.45542,729.64406 c -6.11787,-4.2381 -2.27389,-23.1668 12.95263,-63.78188 4.12388,-11 8.06873,-22.4567 8.76634,-25.45933 l 1.26838,-5.45932 -7.95412,-7.54068 c -8.4515,-8.01219 -28.20084,-23.83101 -68.84579,-55.14408 -29.98958,-23.10413 -51.20757,-40.30618 -73.82764,-59.85427 -24.76125,-21.39849 -27.73333,-23.825 -29.8642,-24.38224 -3.72826,-0.97496 -18.63612,14.03611 -79.29097,79.83992 -74.38993,80.70485 -123.74684,132.518 -126.22437,132.5059 C 130.00701,700.33667 37.39494,617.66999 14.513909,591.53919 7.080926,583.05051 1.14286,572.90874 1.14286,568.70246 c 0,-1.28716 0.956368,-3.29665 2.125261,-4.46554 1.871767,-1.87177 2.855803,-2.05017 8.25,-1.49566 7.152309,0.73523 25.974509,5.59148 46.983709,12.12211 19.00159,5.90657 22.85303,6.38332 29.1315,3.60605 6.99696,-3.09509 14.1165,-10.92723 51.19685,-56.32127 72.20554,-88.39456 73.31268,-89.91959 73.31268,-100.98457 0,-7.68537 -1.84636,-11.06452 -7.55585,-13.82843 -5.95701,-2.88374 -11.14007,-2.32096 -22.17525,2.40782 -10.08451,4.3214 -20.58433,7.62724 -24.12424,7.59547 -4.78822,-0.043 -13.75922,-4.53651 -38.35922,-19.21398 C 106.57131,390.15508 84.39286,377.21228 70.64286,369.3627 32.51436,347.59593 29.03989,345.09233 27.62078,338.36218 26.20886,331.6661 19.12784,323.74051 -1.85714,305.36837 c -30.263848,-26.4957 -40.980462,-39.44184 -40.980462,-49.50619 0,-7.29756 6.862079,-18.48936 19.199894,-31.31434 6.589844,-6.85004 11.202052,-9.18566 18.139184,-9.18566 9.618621,0 17.569433,5.34321 40.141384,26.97632 21.37995,20.49069 28.62585,25.65322 44.6581,31.81781 5.86195,2.254 21.21898,8.59596 34.12672,14.09326 22.11928,9.42041 36.00333,14.50008 46.99447,17.19357 12.79705,3.13606 17.95271,-1.23042 45.55393,-38.58096 4.87725,-6.6 13.32252,-17.11349 18.76726,-23.3633 17.65534,-20.26593 22.15359,-26.99612 21.03149,-31.46691 -1.47829,-5.88998 -11.42701,-12.98945 -24.72426,-17.64339 -15.79696,-5.52883 -29.49093,-16.3718 -35.12175,-27.80962 -3.08035,-6.25708 -3.28353,-7.32059 -3.28471,-17.19321 -8.9e-4,-7.50513 0.84073,-14.9111 2.93424,-25.82037 l 2.93549,-15.29681 -10.40858,-10.44412 -10.40858,-10.44413 3.47309,-2.98958 c 4.47626,-3.8531 14.60852,-9.02856 17.67565,-9.02856 5.34222,0 14.73953,-12.19688 26.88759,-34.89774 2.45215,-4.58228 2.66353,-5.52913 1.39919,-6.26745 -20.2291,-11.81293 -31.39949,-19.32113 -44.52453,-29.92722 -9.44806,-7.6348 -10.02186,-8.38959 -8.65629,-11.38669 1.5948,-3.50021 7.70828,-4.85349 19.19148,-4.24823 11.63037,0.61302 20.69935,2.44729 41.64339,8.42268 l 16.14339,4.60575 6.30971,-6.90055 c 16.39464,-17.92983 23.31817,-23.40055 29.61483,-23.40055 1.53505,0 15.84048,6.10292 31.78984,13.56206 15.94936,7.45913 49.69884,23.06018 74.99884,34.66901 25.3,11.60883 46.17852,21.24693 46.39672,21.418 0.30786,0.24136 -2.37362,34.59416 -3.21945,41.24482 -0.11351,0.89257 10.99641,7.00668 30.89064,17 40.21145,20.19912 49.27016,26.69661 44.23707,31.7297 -4.05183,4.05183 -33.25606,4.25096 -58.64503,0.39988 -14.55752,-2.20814 -23.62653,-2.55697 -27.56331,-1.06021 -7.11516,2.70518 -49.59664,65.45265 -49.59664,73.25695 0,3.27615 4.64627,13.95045 21.01504,48.27979 23.21624,48.69019 28.37568,60.75059 37.49805,87.6533 11.81925,34.85603 15.37129,41.63958 33.16996,63.3467 21.09786,25.73078 33.46376,39.17611 94.27099,102.5 72.90675,75.92417 81.14466,84.92195 84.68832,92.5 2.72761,5.83297 3.02433,12.29279 0.78172,17.01875 -9.12221,19.22363 -95.66611,100.09522 -120.39467,112.50369 -4.6543,2.33546 -15.59329,3.73053 -17.71685,2.25944 z"
           id="path1324"
           style="fill:url(#radialGradient3542);fill-opacity:1" />
        <path
           d="m 499.45542,729.64406 c -6.11787,-4.2381 -2.27389,-23.1668 12.95263,-63.78188 4.12388,-11 8.0553,-22.40068 8.73648,-25.33485 l 1.23852,-5.33485 -3.87009,-4.0422 c -2.12856,-2.22321 -9.0451,-8.37313 -15.3701,-13.6665 -10.70817,-8.96163 -19.03246,-15.49304 -65,-51.00037 -23.32225,-18.01512 -45.85776,-36.389 -66.32764,-54.07891 -24.76125,-21.39849 -27.73333,-23.825 -29.8642,-24.38224 -3.72857,-0.97504 -18.64458,14.04448 -79.28968,79.83992 -66.88109,72.56101 -118.11827,126.65471 -123.79566,130.69737 l -2.86292,2.03858 -5.50866,-3.79396 C 120.39137,689.84615 88.48859,662.57261 65.14286,640.9357 25.07792,603.80335 9.217976,587.20247 4.184436,577.12947 0.591147,569.93866 0.390433,567.11461 3.268121,564.23692 c 1.871767,-1.87177 2.855803,-2.05017 8.25,-1.49566 7.152309,0.73523 25.974509,5.59148 46.983709,12.12211 17.94451,5.57798 22.80272,6.29375 27.99451,4.12448 8.81647,-3.68376 11.91993,-7.14784 67.30791,-75.12911 54.55385,-66.95749 58.33861,-72.3224 58.33861,-82.69516 0,-7.67923 -1.84733,-11.06499 -7.54116,-13.82133 -6.16101,-2.98249 -10.38725,-2.39866 -24.76859,3.42165 -6.35258,2.57097 -13.99152,5.18657 -16.97542,5.81245 -4.87034,1.02157 -6.05594,0.90211 -11.59086,-1.16781 -3.39107,-1.26817 -15.94372,-8.14441 -27.89478,-15.28052 C 111.421,392.99191 89.04286,379.93959 73.64286,371.12288 32.12365,347.35255 29.05603,345.16887 27.62078,338.36218 c -1.41652,-6.71791 -8.06756,-14.14676 -29.97792,-33.48373 -30.752342,-27.14046 -40.480462,-38.91987 -40.480462,-49.01627 0,-7.29756 6.862079,-18.48936 19.199894,-31.31434 6.589844,-6.85004 11.202052,-9.18566 18.139184,-9.18566 9.634412,0 17.780317,5.47835 40.141384,26.99622 21.02068,20.22802 28.59589,25.6218 44.6581,31.79791 5.86195,2.254 21.21898,8.59596 34.12672,14.09326 22.11928,9.42041 36.00333,14.50008 46.99447,17.19357 12.79705,3.13606 17.95271,-1.23042 45.55393,-38.58096 4.87725,-6.6 13.32252,-17.11349 18.76726,-23.3633 17.65534,-20.26593 22.15359,-26.99612 21.03149,-31.46691 -1.47829,-5.88998 -11.42701,-12.98945 -24.72426,-17.64339 -15.79696,-5.52883 -29.49093,-16.3718 -35.12175,-27.80962 -3.08035,-6.25708 -3.28353,-7.32059 -3.28471,-17.19321 -8.9e-4,-7.50513 0.84073,-14.9111 2.93424,-25.82037 l 2.93549,-15.29681 -10.40858,-10.44412 -10.40858,-10.44413 3.47309,-2.98958 c 4.47626,-3.8531 14.60852,-9.02856 17.67565,-9.02856 5.34222,0 14.73953,-12.19688 26.88759,-34.89774 2.45215,-4.58228 2.66353,-5.52913 1.39919,-6.26745 -26.69528,-15.5889 -52.94251,-34.63756 -53.78984,-39.03742 -0.4909,-2.54904 3.67915,-5.65665 8.57595,-6.39097 10.90279,-1.63497 26.84517,0.86456 52.86794,8.28893 l 16.14339,4.60575 6.30971,-6.90055 c 16.39643,-17.93179 23.32253,-23.40409 29.61367,-23.39773 1.53441,0.0016 15.61484,6.00308 31.28984,13.33673 15.675,7.33365 49.425,22.9357 75,34.67122 25.575,11.73552 46.67852,21.47501 46.89672,21.64332 0.30788,0.23749 -2.37418,34.59356 -3.21945,41.2398 -0.11351,0.89257 10.99641,7.00668 30.89064,17 40.21145,20.19912 49.27016,26.69661 44.23707,31.7297 -4.05183,4.05183 -33.25606,4.25096 -58.64503,0.39988 -14.55752,-2.20814 -23.62653,-2.55697 -27.56331,-1.06021 -7.11516,2.70518 -49.59664,65.45265 -49.59664,73.25695 0,3.27615 4.64627,13.95045 21.01504,48.27979 23.21624,48.69019 28.37568,60.75059 37.49805,87.6533 12.1718,35.89573 16.12016,43.1297 37.36426,68.45668 21.67628,25.84224 36.67644,42.01494 99.14029,106.89002 61.26982,63.63495 72.15657,75.58343 75.62472,83 2.72761,5.83297 3.02433,12.29279 0.78172,17.01875 -9.12221,19.22363 -95.66611,100.09522 -120.39467,112.50369 -4.6543,2.33546 -15.59329,3.73053 -17.71685,2.25944 z"
           id="path1322"
           style="fill:url(#radialGradient3544);fill-opacity:1" />
        <path
           d="m 499.45542,729.64406 c -6.11787,-4.2381 -2.27389,-23.1668 12.95263,-63.78188 4.12388,-11 8.05572,-22.40247 8.73743,-25.33881 l 1.23947,-5.33881 -4.37104,-4.50802 c -8.25597,-8.51469 -19.44328,-17.50803 -79.37105,-63.80542 -23.45063,-18.11685 -45.94693,-36.45741 -66.82764,-54.48257 -24.86215,-21.46212 -27.74001,-23.8108 -29.8525,-24.36323 -3.8084,-0.99592 -17.37094,12.6589 -79.29733,79.83686 -67.30628,73.01408 -116.52008,124.97254 -123.18874,130.05897 l -3.4927,2.66402 -5.49925,-3.78748 C 120.39087,689.84581 88.47912,662.56383 65.14286,640.9357 25.07792,603.80335 9.217976,587.20247 4.184436,577.12947 0.591147,569.93866 0.390433,567.11461 3.268121,564.23692 c 1.871767,-1.87177 2.855803,-2.05017 8.25,-1.49566 7.152309,0.73523 25.974509,5.59148 46.983709,12.12211 17.94451,5.57798 22.80272,6.29375 27.99451,4.12448 8.82164,-3.68592 12.01665,-7.25186 67.31096,-75.12567 54.54956,-66.95963 58.33556,-72.3268 58.33556,-82.6986 0,-7.67923 -1.84733,-11.06499 -7.54116,-13.82133 -6.16101,-2.98249 -10.38725,-2.39866 -24.76859,3.42165 -6.35258,2.57097 -13.99152,5.18657 -16.97542,5.81245 -4.87034,1.02157 -6.05594,0.90211 -11.59086,-1.16781 -3.39107,-1.26817 -15.94372,-8.14441 -27.89478,-15.28052 C 111.421,392.99191 89.04286,379.93959 73.64286,371.12288 32.12365,347.35255 29.05603,345.16887 27.62078,338.36218 c -1.41652,-6.71791 -8.06756,-14.14676 -29.97792,-33.48373 -37.291945,-32.91198 -44.636068,-43.80934 -38.553618,-57.20666 4.209765,-9.27251 19.462205,-26.93418 26.26378,-30.41233 4.767239,-2.43784 13.00242,-2.44485 18.289838,-0.0156 6.253167,2.87299 15.85402,10.56976 29.4738,23.62844 23.01934,22.07099 29.87842,27.01417 46.1843,33.28398 5.86195,2.254 21.16195,8.55672 34,14.00606 12.83804,5.44934 25.3669,10.64167 27.8419,11.5385 8.17622,2.96272 22.1741,6.66131 25.21074,6.66131 8.06748,0 16.54982,-7.99353 34.28216,-32.30657 6.89687,-9.45638 17.04258,-22.36843 22.54603,-28.69343 18.99624,-21.83198 23.72971,-28.80137 22.60496,-33.2827 -1.49019,-5.93741 -11.39615,-13.02199 -24.73618,-17.6909 -15.79696,-5.52883 -29.49093,-16.3718 -35.12175,-27.80962 -3.08035,-6.25708 -3.28353,-7.32059 -3.28471,-17.19321 -8.9e-4,-7.50513 0.84073,-14.9111 2.93424,-25.82037 l 2.93549,-15.29681 -10.31571,-10.35093 -10.31572,-10.35094 3.38023,-3.09629 c 4.0755,-3.73316 14.34682,-9.10823 17.40508,-9.10823 4.72861,0 10.16726,-5.80674 18.2639,-19.5 10.57429,-17.88354 11.89024,-20.6785 10.20058,-21.66519 -26.69528,-15.5889 -52.94251,-34.63756 -53.78984,-39.03742 -0.4909,-2.54904 3.67915,-5.65665 8.57595,-6.39097 10.90074,-1.63466 26.84556,0.8647 52.854,8.28491 l 16.12945,4.60173 6.83076,-7.39653 c 16.65773,-18.03744 22.83041,-22.89653 29.08627,-22.89653 1.51558,0 18.07101,7.14353 36.78984,15.8745 18.71883,8.73098 52.48423,24.341 75.03423,34.68894 22.55,10.34793 41.17852,18.94543 41.39672,19.10554 0.30794,0.22598 -2.37585,34.59178 -3.21945,41.22491 -0.11351,0.89257 10.99641,7.00668 30.89064,17 40.21145,20.19912 49.27016,26.69661 44.23707,31.7297 -4.05183,4.05183 -33.25606,4.25096 -58.64503,0.39988 -14.55752,-2.20814 -23.62653,-2.55697 -27.56331,-1.06021 -7.11516,2.70518 -49.59664,65.45265 -49.59664,73.25695 0,3.29193 4.67705,14.01799 21.05219,48.27979 19.7953,41.41785 29.04081,63.01144 37.27671,87.06265 9.83164,28.71123 12.38931,34.79125 18.61224,44.24439 13.75327,20.89237 43.46068,54.34221 103.61139,116.664 70.3466,72.88567 86.64404,90.61774 90.09782,98.02896 2.71888,5.83422 3.01284,12.30017 0.77373,17.01875 -9.11053,19.19901 -95.69779,100.11112 -120.39467,112.50369 -4.6543,2.33546 -15.59329,3.73053 -17.71685,2.25944 z"
           id="path1320"
           style="fill:url(#radialGradient3546);fill-opacity:1" />
        <path
           d="m 499.45542,729.64406 c -6.11787,-4.2381 -2.27389,-23.1668 12.95263,-63.78188 4.12388,-11 8.06657,-22.44766 8.76153,-25.43925 l 1.26356,-5.43924 -7.39514,-7.07898 c -8.96927,-8.5858 -23.92767,-20.65698 -58.89514,-47.52737 -40.77431,-31.33261 -79.68222,-63.03104 -100.47454,-81.85703 -10.10752,-9.15166 -14.01221,-11.50318 -16.70655,-10.06122 -3.6669,1.96247 -29.94075,29.22791 -70.90608,73.58211 -76.5567,82.88989 -121.81663,130.72201 -128.55714,135.86325 l -3.47081,2.64732 -3.69244,-2.45925 C 112.42987,684.83505 34.43399,614.30006 14.511198,591.53919 7.079815,583.04918 1.14286,572.90725 1.14286,568.70246 c 0,-1.28716 0.956368,-3.29665 2.125261,-4.46554 1.871767,-1.87177 2.855803,-2.05017 8.25,-1.49566 7.152309,0.73523 25.974509,5.59148 46.983709,12.12211 19.00159,5.90657 22.85303,6.38332 29.1315,3.60605 7.11305,-3.14644 14.12675,-10.92927 55.74228,-61.85507 66.78449,-81.72557 68.76725,-84.4777 68.76725,-95.45077 0,-7.67923 -1.84733,-11.06499 -7.54116,-13.82133 -6.16101,-2.98249 -10.38725,-2.39866 -24.76859,3.42165 -6.35258,2.57097 -13.99152,5.18657 -16.97542,5.81245 -4.87034,1.02157 -6.05594,0.90211 -11.59086,-1.16781 -3.39107,-1.26817 -15.94372,-8.14441 -27.89478,-15.28052 C 111.421,392.99191 89.04286,379.93959 73.64286,371.12288 32.12365,347.35255 29.05603,345.16887 27.62078,338.36218 c -1.41652,-6.71791 -8.06756,-14.14676 -29.97792,-33.48373 -37.291945,-32.91198 -44.636068,-43.80934 -38.553618,-57.20666 4.209765,-9.27251 19.462205,-26.93418 26.26378,-30.41233 4.767239,-2.43784 13.00242,-2.44485 18.289838,-0.0156 6.253167,2.87299 15.85402,10.56976 29.4738,23.62844 23.0932,22.1418 29.80073,26.9636 46.5262,33.44595 6.05,2.34482 21.35,8.64826 34,14.00765 12.65,5.35938 25.025,10.47811 27.5,11.37494 8.17622,2.96272 22.1741,6.66131 25.21074,6.66131 8.07216,0 16.47795,-7.84291 33.42447,-31.18625 11.68622,-16.09743 16.45883,-22.04977 30.53366,-38.08127 8.73338,-9.94749 15.83113,-20.30691 15.83113,-23.1061 0,-3.38243 -3.95599,-8.40269 -9.54431,-12.11201 -5.22752,-3.46983 -9.02956,-5.20393 -19.79865,-9.03012 -6.66573,-2.36829 -18.32547,-10.35329 -24.04221,-16.46494 -2.61509,-2.79575 -5.94779,-7.65631 -7.406,-10.80124 -3.81855,-8.23555 -3.74805,-21.30269 0.22666,-42.01487 l 2.93549,-15.29681 -10.31571,-10.35093 -10.31572,-10.35094 3.38023,-3.09629 c 4.0755,-3.73316 14.34682,-9.10823 17.40508,-9.10823 4.72861,0 10.16726,-5.80674 18.2639,-19.5 10.57429,-17.88354 11.89024,-20.6785 10.20058,-21.66519 -26.69528,-15.5889 -52.94251,-34.63756 -53.78984,-39.03742 -0.49195,-2.5545 3.683,-5.65722 8.60551,-6.3954 10.72653,-1.60854 27.1831,0.97386 52.82444,8.28934 l 16.12945,4.60173 6.82187,-7.39653 c 16.15099,-17.51155 22.98903,-22.89653 29.07483,-22.89653 1.5044,0 20.98483,8.49681 43.28984,18.8818 22.30501,10.38498 56.07956,25.99488 75.05456,34.68865 18.975,8.69377 34.67852,15.93798 34.89672,16.09826 0.30721,0.22565 -2.35516,34.33711 -3.21945,41.24898 -0.11545,0.92332 10.65914,6.85159 30.89737,17 39.70157,19.90827 48.77748,26.33832 44.48184,31.51425 -3.48968,4.20482 -33.11376,4.50235 -58.89653,0.59153 -15.24567,-2.31252 -24.5519,-2.55396 -28.15995,-0.73057 -7.38817,3.73373 -47.13763,62.61806 -48.67815,72.11117 -0.60764,3.74446 4.26706,15.13308 24.43888,57.09593 16.48015,34.28316 25.3114,55.09001 33.53072,79 3.59231,10.45 7.9705,22.73817 9.72933,27.30704 8.38113,21.77157 34.32253,52.5415 113.97922,135.19446 71.85375,74.55651 85.1902,89.07362 88.65035,96.4985 2.71888,5.83422 3.01284,12.30017 0.77373,17.01875 -9.00909,18.98524 -95.28254,99.7478 -119.85637,112.20031 -5.18343,2.62664 -15.97586,4.14178 -18.25515,2.56282 z"
           id="path1318"
           style="fill:url(#radialGradient3548);fill-opacity:1" />
      </g>
    </g>
    <g
       id="g1369"
       inkscape:label="Layer 1"
       transform="matrix(0.838607,0,0,0.838607,387.65774,-22.898501)">
      <path
         d="m 237.08507,413.39984 c -8.7869,-0.67422 -18.5586,-2.49112 -21.45602,-3.98944 l -1.31621,-0.68063 0.91928,-0.97853 c 0.5056,-0.5382 2.06094,-1.58703 3.4563,-2.33075 3.66252,-1.9521 4.11206,-2.51601 4.11206,-5.15825 0,-1.22705 -1.22857,-9.55797 -2.73016,-18.51316 -3.46524,-20.66607 -5.59777,-35.64956 -7.75104,-54.45999 -4.7849,-41.79979 -5.36755,-45.00881 -9.67566,-53.28954 -3.45768,-6.6461 -8.8457,-11.05699 -16.80798,-13.75979 -8.38127,-2.84504 -19.5522,-4.46618 -34.4581,-5.0006 -4.0438,-0.14498 -8.15602,-0.46382 -9.13828,-0.70854 -1.84536,-0.45975 -3.43582,-1.942 -4.81166,-4.48429 -0.68519,-1.26611 -0.82777,-1.32248 -3.34525,-1.32248 -1.44626,0 -5.10223,0.40574 -8.12439,0.90164 -5.26385,0.86374 -5.5592,0.87109 -7.02606,0.17502 -0.91897,-0.43608 -2.11984,-1.59455 -3.00331,-2.89728 -5.41099,-7.97879 -2.8369,-20.7831 4.60729,-22.91806 1.40514,-0.40299 3.7204,0.14642 7.52417,1.78549 1.93543,0.83398 3.23458,1.08855 5.59441,1.0962 3.24184,0.0105 4.00874,-0.24701 6.37944,-2.14223 3.46067,-2.76658 11.05912,-4.25013 34.24099,-6.68535 18.24961,-1.91709 16.73022,-1.50177 39.91272,-10.91036 4.62142,-1.8756 8.82802,-3.80986 9.348,-4.29835 0.73528,-0.69076 0.94541,-1.35373 0.94541,-2.98282 0,-1.99912 -0.11051,-2.2018 -2.42272,-4.44322 -1.3325,-1.29171 -3.62731,-3.37523 -5.09958,-4.63005 -3.30409,-2.81609 -5.53808,-6.31868 -11.15635,-16.98437 -5.61827,-10.6657 -4.55774,-9.42041 -14.40676,-13.35041 -6.2093,-2.47766 -8.08782,-3.44027 -8.08782,-4.14443 0,-1.1401 5.66477,-2.94223 15.04272,-4.78554 8.44134,-1.65921 8.94348,-1.92034 15.8372,-8.23589 13.15523,-12.05191 23.09012,-16.59931 34.52783,-15.80409 10.83436,0.75327 21.6429,6.19638 31.64343,14.99199 10.00054,8.79562 9.88968,8.48102 18.95527,10.64996 6.49554,1.55406 10.7171,2.93695 11.65513,3.81794 0.47324,0.44447 0.25788,0.71914 -1.2604,1.60749 -1.00715,0.58929 -4.14816,2.05724 -6.98008,3.26212 -2.83192,1.20488 -5.87265,2.81015 -6.75716,3.56727 -1.11012,0.95024 -2.47186,3.05456 -4.39667,6.79428 -5.1248,9.95703 -9.22435,14.79635 -16.88547,19.93265 -6.17939,4.14288 -6.93467,4.97165 -6.93467,7.60961 0,1.95672 1.31973,3.37778 4.45138,4.79307 7.66355,3.46341 26.09592,11.10502 28.52922,11.8275 3.93641,1.16878 6.36466,1.50322 20.16647,2.77746 20.41075,1.88442 27.49813,3.07465 30.66985,5.15057 2.15349,1.40948 5.07872,1.66724 9.10567,0.80233 7.01226,-1.5061 8.89544,-1.32822 11.29012,1.06646 3.96918,3.96918 5.06994,10.67479 2.84839,17.35172 -1.06084,3.18842 -2.44775,5.0204 -4.65203,6.14494 -2.29343,1.17001 -4.306,0.91579 -10.16117,-1.2835 -2.50451,-0.94074 -4.95339,-1.70662 -5.44197,-1.70195 -0.59705,0.006 -1.85271,1.17304 -3.82928,3.55989 -3.43615,4.14941 -2.39048,3.83721 -14.07452,4.20218 -14.47415,0.45212 -25.35619,1.66168 -30.49289,3.38936 -5.90314,1.98545 -10.06664,5.24769 -12.04043,9.43413 -2.54863,5.4056 -4.37016,16.20673 -6.19825,36.75438 -2.29453,25.78956 -5.42042,46.70216 -11.58451,77.50095 -1.73272,8.65761 -3.26668,17.11649 -3.40876,18.79752 l -0.25839,3.05641 1.84696,0.78104 c 1.0158,0.42957 2.74184,1.10732 3.83566,1.50611 1.09382,0.39879 2.40775,1.06435 2.91985,1.47902 l 0.93111,0.75395 -1.29326,0.66877 c -3.03447,1.56918 -13.78591,3.67873 -21.35185,4.44681 -7.56593,0.76808 -17.05983,0.85334 -22.47722,0.43766 z"
         id="path1371"
         sodipodi:nodetypes="ccccssssssssssssssssssssssszssssszsssssssssssssssssssssssscccsccccc"
         style="fill:url(#radialGradient2076);fill-opacity:1" />
    </g>
  </g>
</svg>
